<?xml version="1.0" encoding="utf-8"?>
<!-- Generator: Adobe Illustrator 19.1.0, SVG Export Plug-In . SVG Version: 6.00 Build 0)  -->
<svg version="1.1" id="Layer_1" xmlns="http://www.w3.org/2000/svg" xmlns:xlink="http://www.w3.org/1999/xlink" x="0px" y="0px"
	 viewBox="0 0 56.6 60" style="enable-background:new 0 0 56.6 60;" xml:space="preserve">
<style type="text/css">
	.st0{fill:#34495E;}
	.st1{fill:#5CC3D9;}
</style>
<g>
	<g>
		<rect x="42.1" y="1.1" class="st0" width="1.5" height="13.2"/>
	</g>
	<g>
		<rect x="42.1" y="13.2" class="st0" width="13.9" height="1.5"/>
	</g>
	<polygon class="st0" points="43.5,2.5 43.5,13.8 54.6,13.5 	"/>
	<path class="st0" d="M50.1,6.7L43.2,0H11.8v35.3c0,0,0,0,0,0c0.5,0.6,1,1.2,1.3,2c0.2,0.6,0.4,1.3,0.4,2.1V2h29.1l6.6,6l6.2,6.2
		v44.4H13.5V41.1c0,0.7-0.2,1.3-0.4,1.8c-0.3,0.9-0.9,1.6-1.3,2.1V60h44.9V13.6L50.1,6.7z"/>
	<g>
		<path class="st1" d="M21.1,35.9c-1,0-1.9,0.4-2.5,1.1c-0.6,0.7-1,1.8-1,3.2c0,1.4,0.3,2.5,1,3.2c0.7,0.7,1.5,1.1,2.5,1.1
			c1,0,1.8-0.4,2.5-1.1c0.6-0.7,1-1.8,1-3.3c0-1.4-0.3-2.5-0.9-3.2C23,36.2,22.1,35.9,21.1,35.9z"/>
		<path class="st1" d="M9.7,36.7C9.4,36.4,9,36.1,8.6,36c-0.4-0.1-1.1-0.2-2.1-0.2H5.7v8.4h1.5c0.7,0,1.2,0.1,1.5,0
			c0.4-0.1,0.8-0.2,1-0.5c0.3-0.2,0.5-0.6,0.7-1.2c0.2-0.6,0.3-1.3,0.3-2.3c0-1-0.1-1.7-0.3-2.2C10.3,37.4,10,37,9.7,36.7z"/>
		<path class="st1" d="M42.5,29.9c0-0.9-0.7-1.6-1.6-1.6H1.6c-0.9,0-1.6,0.7-1.6,1.6v21.4C0,52.2,0.7,53,1.6,53h39.3
			c0.9,0,1.6-0.7,1.6-1.6V29.9z M13,43c-0.3,0.9-0.8,1.7-1.3,2.2c-0.4,0.4-1,0.6-1.8,0.9c-0.6,0.2-1.3,0.1-2.2,0.1H3V34.1h4.4
			c1,0,1.8,0,2.4,0.1c0.7,0.2,1.4,0.6,1.9,1.1c0.5,0.6,0.9,1.2,1.2,2c0.3,0.8,0.4,1.8,0.4,3C13.3,41.4,13.2,42.2,13,43z M25.5,45
			c-1.1,1.1-2.6,1.7-4.4,1.7c-1.9,0-3.4-0.6-4.5-1.7c-1.1-1.1-1.7-2.7-1.7-4.7c0-1.3,0.2-2.4,0.6-3.2c0.3-0.6,0.7-1.2,1.2-1.7
			c0.5-0.5,1-0.9,1.6-1.1c0.8-0.3,1.7-0.5,2.7-0.5c1.9,0,3.3,0.6,4.5,1.7c1.1,1.2,1.7,2.8,1.7,4.8C27.2,42.2,26.6,43.8,25.5,45z
			 M37.8,45.7c-0.9,0.7-2,1-3.3,1c-1.7,0-3-0.6-4.1-1.7c-1.1-1.1-1.6-2.7-1.6-4.7c0-2.1,0.5-3.7,1.6-4.9c1.1-1.2,2.5-1.7,4.3-1.7
			c1.5,0,2.8,0.5,3.8,1.4c0.6,0.5,1,1.3,1.3,2.3L37.1,38c-0.1-0.7-0.5-1.2-0.9-1.5c-0.5-0.4-1-0.6-1.7-0.6c-0.9,0-1.7,0.3-2.3,1
			c-0.6,0.7-0.9,1.8-0.9,3.3c0,1.6,0.3,2.7,0.9,3.4c0.6,0.7,1.3,1,2.2,1c0.7,0,1.3-0.2,1.7-0.6c0.5-0.4,0.8-1.1,1-2l2.5,0.8
			C39.3,44,38.7,45,37.8,45.7z"/>
	</g>
</g>
</svg>
