<?xml version="1.0" encoding="iso-8859-1"?>
<!-- Generator: Adobe Illustrator 18.1.1, SVG Export Plug-In . SVG Version: 6.00 Build 0)  -->
<svg version="1.1"  xmlns="http://www.w3.org/2000/svg" xmlns:xlink="http://www.w3.org/1999/xlink" x="0px" y="0px"
	 viewBox="0 0 76 76" style="enable-background:new 0 0 76 76;" xml:space="preserve">
<g>
	
		<linearGradient id="SVGID_1_" gradientUnits="userSpaceOnUse" x1="38" y1="-399.5" x2="38" y2="-324.5" gradientTransform="matrix(1 0 0 -1 0 -324)">
		<stop  offset="0" style="stop-color:#b8e3e8"/>
		<stop  offset="0.3" style="stop-color:#b8e3e8"/>
		<stop  offset="0.3773" style="stop-color:#b8e3e8"/>
		<stop  offset="0.5517" style="stop-color:#b8e3e8"/>
		<stop  offset="0.7464" style="stop-color:#b8e3e8"/>
		<stop  offset="1" style="stop-color:#b8e3e8"/>
	</linearGradient>
	<path style="fill:url(#SVGID_1_);" d="M38,75.5C17.3,75.5,0.5,58.7,0.5,38C0.5,17.3,17.3,0.5,38,0.5S75.5,17.3,75.5,38
		C75.5,58.7,58.7,75.5,38,75.5z"/>
	<path style="fill:#b8e3e8;" d="M38,1c20.4,0,37,16.6,37,37c0,20.4-16.6,37-37,37S1,58.4,1,38C1,17.6,17.6,1,38,1 M38,0
		C17,0,0,17,0,38c0,21,17,38,38,38s38-17,38-38C76,17,59,0,38,0L38,0z"/>
</g>
<path style="fill:#FFFFFF;" d="M47.8,60.5c-3.1-0.2-23.7-5.2-32.3-29.6c-1.8-5.1,0.4-13.4,6.3-15.2c5.9-1.9,9,6.4,9.8,11.6l-5.2,5.2
	c0,0-0.1,3.2,6.9,10.3c7.1,7.1,10.3,6.9,10.3,6.9l6-6c3.8,0.8,11.4,5.6,11.4,5.6C60.2,56.6,55.3,61.3,47.8,60.5z"/>
<linearGradient id="SVGID_2_" gradientUnits="userSpaceOnUse" x1="38" y1="-366.886" x2="38" y2="-324.9974" gradientTransform="matrix(1 0 0 -1 0 -324)">
	<stop  offset="0" style="stop-color:#FFFFFF"/>
	<stop  offset="1" style="stop-color:#FFFFFF;stop-opacity:0"/>
</linearGradient>
<path style="opacity:0.5;fill:url(#SVGID_2_);enable-background:new    ;" d="M1.1,35.4c8.9,4.5,22.1,7.4,36.9,7.4
	c14.8,0,28-2.9,36.9-7.4C73.6,16.2,57.6,1,38,1S2.4,16.2,1.1,35.4z"/>
</svg>
