<svg style="position: absolute; width: 0; height: 0;" width="0" height="0" version="1.1" xmlns="http://www.w3.org/2000/svg" xmlns:xlink="http://www.w3.org/1999/xlink">
<defs>
<symbol id="linkedin" viewBox="0 0 1071 1024">
	<path class="path1" d="M1071.104 628.736v395.264h-229.376v-368.64c0-92.16-32.768-155.648-116.736-155.648-63.488 0-100.352 43.008-118.784 83.968-6.144 14.336-8.192 34.816-8.192 55.296v385.024h-227.328c0 0 4.096-626.688 0-690.176h229.376v96.256l-2.048 2.048h2.048v-2.048c30.72-47.104 86.016-114.688 206.848-114.688 151.552 2.048 264.192 100.352 264.192 313.344zM129.024 0c-77.824 0-129.024 51.2-129.024 118.784 0 65.536 49.152 118.784 126.976 118.784h2.048c79.872 0 129.024-53.248 129.024-118.784-2.048-67.584-49.152-118.784-129.024-118.784zM14.336 1024h229.376v-690.176h-229.376v690.176z"></path>
</symbol>
<symbol id="location" viewBox="0 0 985 1024">
	<path class="path1" d="M479.232 790.528c4.096 4.096 8.192 6.144 14.336 6.144s10.24-2.048 14.336-6.144c6.144-8.192 161.792-184.32 245.76-378.88 18.432-38.912 28.672-79.872 28.672-122.88 0-157.696-129.024-286.72-288.768-286.72-161.792-2.048-290.816 126.976-290.816 284.672 0 43.008 10.24 83.968 26.624 122.88 86.016 196.608 243.712 372.736 249.856 380.928zM491.52 38.912c139.264 0 251.904 112.64 251.904 249.856 0 36.864-8.192 73.728-24.576 108.544-67.584 155.648-186.368 305.152-225.28 352.256-40.96-49.152-159.744-196.608-227.328-354.304-16.384-32.768-24.576-69.632-24.576-106.496 0-139.264 112.64-249.856 249.856-249.856z"></path>
	<path class="path2" d="M491.52 421.888c75.776 0 137.216-61.44 137.216-137.216s-61.44-137.216-137.216-137.216-137.216 61.44-137.216 137.216c0 75.776 61.44 137.216 137.216 137.216zM491.52 184.32c55.296 0 98.304 45.056 98.304 98.304s-45.056 98.304-98.304 98.304-98.304-45.056-98.304-98.304c0-53.248 45.056-98.304 98.304-98.304z"></path>
	<path class="path3" d="M985.088 999.424l-114.688-436.224c-2.048-6.144-6.144-10.24-12.288-12.288l-94.208-38.912-14.336 34.816 86.016 34.816 100.352 387.072-190.464-94.208c-6.144-2.048-10.24-2.048-16.384 0l-237.568 110.592-237.568-110.592c-6.144-2.048-10.24-2.048-16.384 0l-190.464 94.208 100.352-387.072 86.016-34.816-14.336-34.816-94.208 38.912c-6.144 2.048-10.24 6.144-12.288 12.288l-112.64 436.224c-2.048 8.192 0 14.336 6.144 20.48 6.144 4.096 14.336 6.144 20.48 2.048l219.136-110.592 237.568 110.592c4.096 2.048 10.24 2.048 16.384 0l237.568-110.592 219.136 110.592c2.048 2.048 6.144 2.048 8.192 2.048 4.096 0 8.192-2.048 12.288-4.096 8.192-4.096 10.24-12.288 8.192-20.48z"></path>
</symbol>
<symbol id="phone" viewBox="0 0 1038 1024">
	<path class="path1" d="M1038.336 847.872c-2.048-18.432-14.336-34.816-36.864-51.2l-229.376-157.696c-12.288-8.192-24.576-12.288-38.912-12.288-22.528 0-43.008 10.24-55.296 28.672l-59.392 83.968c-4.096 6.144-6.144 14.336-6.144 22.528-22.528 4.096-88.064 2.048-196.608-106.496-104.448-104.448-153.6-180.224-147.456-229.376 2.048 0 2.048-2.048 2.048-2.048 6.144-2.048 10.24-4.096 14.336-6.144l81.92-61.44c28.672-22.528 34.816-65.536 12.288-96.256l-163.84-223.232c-32.768-43.008-69.632-49.152-108.544-14.336-26.624 22.528-67.584 73.728-86.016 104.448-8.192 18.432-12.288 34.816-10.24 53.248-6.144 24.576-18.432 98.304 2.048 202.752 30.72 139.264 110.592 274.432 239.616 399.36 217.088 210.944 407.552 241.664 501.76 241.664v0c55.296 0 94.208-10.24 112.64-18.432 16.384 0 32.768-4.096 49.152-14.336 30.72-18.432 81.92-61.44 102.4-88.064 16.384-18.432 22.528-36.864 20.48-55.296zM987.136 880.64c-18.432 22.528-65.536 63.488-92.16 77.824-4.096 2.048-8.192 4.096-10.24 4.096-26.624-12.288-71.68-34.816-86.016-53.248-6.144-8.192-18.432-10.24-26.624-2.048-8.192 6.144-10.24 18.432-2.048 26.624 12.288 14.336 34.816 30.72 57.344 43.008-16.384 4.096-40.96 6.144-69.632 6.144v0c-88.064 0-268.288-30.72-475.136-229.376-299.008-284.672-241.664-540.672-235.52-567.296 0-2.048 0-6.144 0-8.192-2.048-10.24 0-20.48 6.144-30.72 14.336-26.624 53.248-75.776 75.776-94.208 10.24-8.192 18.432-12.288 26.624-12.288 2.048 0 12.288 0 26.624 20.48l163.84 223.232c10.24 14.336 8.192 32.768-4.096 43.008l-81.92 61.44c0 0 0 0-2.048 0-20.48-16.384-51.2-40.96-59.392-55.296-6.144-8.192-18.432-12.288-26.624-6.144s-12.288 18.432-6.144 26.624c12.288 18.432 43.008 45.056 61.44 59.392-16.384 63.488 32.768 147.456 157.696 270.336 98.304 98.304 169.984 118.784 212.992 118.784 18.432 0 32.768-4.096 38.912-8.192 6.144-2.048 8.192-8.192 10.24-14.336 0-2.048 0-6.144 0-10.24 0-2.048 0-6.144 0-8.192l57.344-81.92c8.192-12.288 28.672-14.336 40.96-6.144l229.376 157.696c12.288 8.192 20.48 16.384 20.48 24.576 4.096 4.096 0 14.336-8.192 24.576z"></path>
	<path class="path2" d="M497.664 223.232c149.504 45.056 266.24 161.792 313.344 311.296 2.048 8.192 10.24 14.336 18.432 14.336 2.048 0 4.096 0 6.144 0 10.24-4.096 16.384-14.336 12.288-24.576-51.2-161.792-176.128-288.768-339.968-337.92-10.24-4.096-20.48 2.048-24.576 12.288-2.048 10.24 4.096 20.48 14.336 24.576z"></path>
	<path class="path3" d="M524.288 79.872c225.28 53.248 395.264 233.472 436.224 460.8 2.048 10.24 10.24 16.384 18.432 16.384 2.048 0 2.048 0 4.096 0 10.24-2.048 18.432-12.288 16.384-22.528-45.056-243.712-227.328-436.224-466.944-493.568-10.24-2.048-20.48 4.096-22.528 14.336-4.096 12.288 4.096 22.528 14.336 24.576z"></path>
</symbol>
<symbol id="email" viewBox="0 0 1032 1024">
	<path class="path1" d="M925.696 415.744l-141.312 96.256v-196.608c0-10.24-8.192-18.432-18.432-18.432h-497.664c-10.24 0-18.432 8.192-18.432 18.432v196.608l-141.312-96.256c-8.192-6.144-20.48-4.096-26.624 4.096s-4.096 20.48 4.096 26.624l358.4 243.712c20.48 14.336 47.104 20.48 73.728 20.48s53.248-6.144 73.728-20.48l358.4-243.712c8.192-6.144 10.24-18.432 4.096-26.624-8.192-8.192-20.48-10.24-28.672-4.096zM569.344 659.456c-28.672 18.432-75.776 18.432-104.448 0l-180.224-122.88c2.048-2.048 2.048-6.144 2.048-10.24v-190.464h458.752v190.464c0 4.096 2.048 6.144 2.048 10.24l-178.176 122.88z"></path>
	<path class="path2" d="M1003.52 342.016l-415.744-319.488c-18.432-14.336-45.056-22.528-71.68-22.528s-53.248 8.192-71.68 22.528l-415.744 319.488c-16.384 12.288-28.672 38.912-28.672 61.44v526.336c0 51.2 43.008 94.208 96.256 94.208h841.728c53.248 0 96.256-43.008 96.256-96.256v-524.288c-2.048-22.528-14.336-49.152-30.72-61.44zM993.28 927.744c0 30.72-26.624 57.344-57.344 57.344h-839.68c-30.72 0-57.344-26.624-57.344-57.344v-524.288c0-10.24 6.144-24.576 14.336-30.72l413.696-319.488c12.288-10.24 30.72-14.336 49.152-14.336s36.864 6.144 49.152 14.336l415.744 319.488c6.144 6.144 14.336 20.48 14.336 30.72v524.288h-2.048z"></path>
	<path class="path3" d="M649.216 411.648h-266.24c-10.24 0-18.432 8.192-18.432 18.432s8.192 18.432 18.432 18.432h268.288c10.24 0 18.432-8.192 18.432-18.432s-8.192-18.432-20.48-18.432z"></path>
	<path class="path4" d="M649.216 489.472h-266.24c-10.24 0-18.432 8.192-18.432 18.432s8.192 18.432 18.432 18.432h268.288c10.24 0 18.432-8.192 18.432-18.432s-8.192-18.432-20.48-18.432z"></path>
</symbol>
</defs>
</svg>
